<?xml version="1.0" encoding="utf-8"?>
<svg viewBox="-2.292 4 1128.292 335" width="1128.292px" height="335px" xmlns="http://www.w3.org/2000/svg">
  <path fill="currentColor" d="M -2.292 163.281 C -2.292 255.281 84 339 176 339 C 268 339 344 263 344 171 C 344 79 268 4 176 4 C 84 4 -2.292 71.281 -2.292 163.281 Z M 119.647 299.171 C 80.647 275.171 111.693 193.271 53.693 206.271 C 39.693 208.271 50.558 188.915 62.558 186.915 C 126.558 171.915 214.005 189.849 258.005 216.849 C 269.005 223.849 130.647 305.171 119.647 299.171 Z M 247.925 211.075 C 202.925 183.075 195.026 186.412 143.317 166.633 C 113.887 155.376 218.144 152.474 231.514 144.849 C 280.032 180.181 242.019 185.31 299.875 192.291 C 316.398 194.285 261.925 220.075 247.925 211.075 Z M 80 133 C 13.989 301.871 61.201 85.79 79.362 70.196 C 138.362 52.196 250.583 77.065 312.583 114.065 C 329.583 123.065 282.065 136.914 264.065 126.914 C 210.065 94.914 131 117 80 133 Z M 459 224 C 442 224 426 218 412 204 C 411 204 411 205 411 205 L 395 224 C 394 225 394 226 395 227 C 413 243 394.477 281.875 418.477 281.875 C 452.477 281.875 542.945 244.221 542.945 216.221 C 542.945 192.221 499 167 464 158 C 435 151 467.95 149.216 467.95 139.216 C 467.95 129.216 440 120 453 120 C 466 120 478 125 492 135 C 492 135 493 136 494 136 C 495 136 495 135 495 135 L 509 115 C 510 114 510 114 509 113 C 493 100 441.196 65.341 420.196 65.341 C 389.196 65.341 400 112 400 139 C 400 168 363.396 167.995 395.396 175.995 C 423.396 181.995 484 197 484 207 C 484 218 474 224 459 224 Z M 554 147 L 554 134 C 554 133 553 132 552 132 L 526 132 C 525 132 524 133 524 134 L 524 281 C 524 282 525 283 526 283 L 552 283 C 553 283 554 282 554 281 L 554 235 C 564 246 613.593 262.578 628.593 262.578 C 655.593 262.578 639.497 229.357 639.497 189.357 C 639.497 149.357 662.026 127.427 635.026 127.427 C 620.026 127.427 564 135 554 147 Z M 584 225 C 566 225 553 210 553 190 C 553 170 584.653 156.643 602.653 156.643 C 620.653 156.643 614 170 614 190 C 614 210 602 225 584 225 Z M 652 191 C 652 225 679 251 714 251 C 749 251 776 224 776 190 C 776 156 750 130 715 130 C 680 130 652 157 652 191 Z M 670.422 173.276 C 670.422 153.276 696.929 218.392 715.929 218.392 C 734.929 218.392 760.508 161.995 760.508 181.995 C 760.508 201.995 734.643 237.221 715.643 237.221 C 696.643 237.221 670.422 193.276 670.422 173.276 Z M 829.719 148.081 L 822 103 C 822 102 822 101 821 101 L 795 101 C 794 101 793 102 793 103 L 813.583 148.724 L 780 132 C 779 132 778 133 778 134 L 778 156 C 778 157 779 158 780 158 L 816.156 165.075 L 793 216 C 793 239 804 251 827 251 C 836 251 845 249 852 245 C 853 245 853 244 853 243 L 853 222 C 853 221 853 220 852 220 L 850 220 C 845 223 839 224 834 224 C 826 224 822 220 822 212 L 843.226 183.729 L 833.347 161.859 C 834.347 161.859 854 157 854 156 L 854 134 C 854 133 853 132 852 132 L 829.719 148.081 Z M 951 129 C 951 118 955 114 964 114 C 969 114 974 114 979 116 L 980 116 C 980 116 981 115 981 114 L 981 93 C 981 92 981 91 980 91 C 975 89 968 88 958 88 C 934 88 922 102 922 127 L 922 132 L 909 132 C 908 132 907 133 907 134 L 907 156 C 907 157 908 158 909 158 L 892.412 194.664 L 922 247 C 922 248 907.563 272.156 908.563 272.156 L 950 249 C 951 249 933.633 213.909 933.633 212.909 L 951 158 L 982.433 193.377 L 1013 247 C 1009 256 1005 258 999 258 C 994 258 989 257 984 254 L 973.352 199.326 L 947.91 204.186 L 973 274 C 973 275 920.899 273.784 921.899 273.784 C 930.899 278.784 991 284 1001 284 C 1020 284 1031 275 1040 251 L 1065.703 217.976 L 1051.552 164.518 C 1051.552 163.518 1059.558 139.075 1058.558 139.075 L 1040.563 122.995 C 1039.563 122.995 1029.271 156.156 1029.271 157.156 L 1027 212 L 997 134 C 997 133 996 132 995 132 L 951 132 L 951 129 Z M 882.151 150.01 C 881.151 150.01 866 133 866 134 L 866 247 C 866 248 867 249 868 249 L 894 249 C 895 249 876.347 192.04 876.347 191.04 L 895 134 C 895 133 895 132 894 132 L 882.151 150.01 Z M 862 99 C 862 109 913.453 139.87 923.453 139.87 C 933.453 139.87 899 109 899 99 C 899 89 891 81 881 81 C 871 81 862 89 862 99 Z M 1107 168 C 1117 168 1126 160 1126 150 C 1126 140 1117 132 1107 132 C 1097 132 1089 140 1089 150 C 1089 160 1097 168 1107 168 Z M 1107 134 C 1116 134 1124 141 1124 150 C 1124 159 1116 166 1107 166 C 1098 166 1091 159 1091 150 C 1091 141 1098 134 1107 134 Z M 1111 152 C 1114 151 1116 149 1116 146 C 1116 142 1112 140 1108 140 L 1100 140 L 1100 159 L 1104 159 L 1104 153 L 1108 153 L 1112 159 L 1117 159 L 1111 152 Z M 1108 143 C 1110 143 1112 144 1112 146 C 1112 148 1110 149 1108 149 L 1104 149 L 1104 143 L 1108 143 Z"/>
  <path d="M 554.446 35.196 C 551.199 40.816 549.529 44.399 549.436 45.946 C 549.436 46.213 549.353 46.346 549.186 46.346 C 548.906 46.346 548.653 46.096 548.426 45.596 C 548.199 45.103 548.086 44.613 548.086 44.126 C 548.086 43.473 548.226 42.746 548.506 41.946 C 548.786 41.146 549.076 40.513 549.376 40.046 L 549.796 39.346 C 549.856 39.266 549.886 39.199 549.886 39.146 C 549.886 39.106 549.866 39.086 549.826 39.086 L 549.656 39.176 C 548.236 40.909 546.936 42.313 545.756 43.386 C 544.569 44.459 543.683 45.146 543.096 45.446 C 542.503 45.746 542.019 45.896 541.646 45.896 C 540.773 45.896 540.336 45.073 540.336 43.426 C 540.336 42.066 540.596 40.503 541.116 38.736 C 541.643 36.976 542.379 35.219 543.326 33.466 C 544.279 31.706 545.346 30.086 546.526 28.606 C 547.699 27.119 549.013 25.916 550.466 24.996 C 551.926 24.069 553.356 23.606 554.756 23.606 C 555.056 23.606 555.323 23.629 555.556 23.676 C 555.789 23.723 555.969 23.766 556.096 23.806 C 556.229 23.839 556.306 23.856 556.326 23.856 C 556.453 23.856 556.563 23.793 556.656 23.666 C 557.069 23.439 557.593 23.326 558.226 23.326 C 558.786 23.326 559.066 23.466 559.066 23.746 C 559.066 24.233 558.529 25.316 557.456 26.996 C 556.383 28.676 555.669 29.516 555.316 29.516 C 555.163 29.516 555.086 29.366 555.086 29.066 C 555.086 28.766 555.153 28.326 555.286 27.746 C 555.419 27.173 555.556 26.666 555.696 26.226 C 555.836 25.786 555.906 25.576 555.906 25.596 C 555.939 25.443 555.956 25.329 555.956 25.256 C 555.956 24.956 555.829 24.733 555.576 24.586 C 555.329 24.439 555.056 24.366 554.756 24.366 C 553.376 24.366 551.783 25.453 549.976 27.626 C 548.176 29.799 546.656 32.299 545.416 35.126 C 544.176 37.953 543.556 40.283 543.556 42.116 C 543.556 42.916 543.753 43.316 544.146 43.316 C 544.593 43.316 545.386 42.746 546.526 41.606 C 548.593 39.539 550.169 37.609 551.256 35.816 C 551.723 35.123 551.956 34.459 551.956 33.826 C 551.956 33.493 551.889 33.236 551.756 33.056 C 551.629 32.876 551.566 32.749 551.566 32.676 C 551.566 32.489 551.696 32.386 551.956 32.366 C 552.516 32.313 553.139 32.286 553.826 32.286 C 554.613 32.286 555.276 32.333 555.816 32.426 C 555.969 32.446 556.046 32.519 556.046 32.646 C 556.046 32.759 555.979 32.893 555.846 33.046 C 555.433 33.586 554.966 34.303 554.446 35.196 ZM 562.509 45.366 C 561.576 43.853 561.109 40.426 561.109 35.086 L 561.139 33.376 C 561.139 33.263 561.166 33.179 561.219 33.126 C 561.279 33.073 561.336 33.046 561.389 33.046 L 561.469 33.016 C 563.023 32.849 564.466 32.219 565.799 31.126 C 567.133 30.033 567.799 28.776 567.799 27.356 C 567.799 26.796 567.656 26.306 567.369 25.886 C 567.076 25.466 566.693 25.149 566.219 24.936 C 565.746 24.723 565.259 24.563 564.759 24.456 C 564.266 24.356 563.776 24.306 563.289 24.306 C 562.436 24.306 561.589 24.446 560.749 24.726 C 559.909 25.006 559.169 25.463 558.529 26.096 C 557.896 26.729 557.579 27.476 557.579 28.336 C 557.579 28.863 557.729 29.386 558.029 29.906 C 558.103 30.093 558.139 30.213 558.139 30.266 C 558.139 30.379 558.083 30.436 557.969 30.436 C 557.803 30.436 557.589 30.353 557.329 30.186 C 556.169 29.493 555.589 28.663 555.589 27.696 C 555.589 26.423 556.369 25.423 557.929 24.696 C 559.489 23.969 561.323 23.606 563.429 23.606 C 564.143 23.606 564.839 23.653 565.519 23.746 C 566.199 23.839 566.933 23.999 567.719 24.226 C 568.499 24.446 569.129 24.803 569.609 25.296 C 570.083 25.796 570.319 26.399 570.319 27.106 C 570.319 28.059 569.906 28.993 569.079 29.906 C 568.246 30.819 567.326 31.556 566.319 32.116 C 565.313 32.676 564.359 33.069 563.459 33.296 C 563.333 33.389 563.269 33.493 563.269 33.606 C 563.269 34.273 563.286 35.033 563.319 35.886 C 563.359 36.733 563.439 37.916 563.559 39.436 C 563.679 40.963 563.913 42.336 564.259 43.556 C 564.606 44.776 565.039 45.629 565.559 46.116 C 565.653 46.209 565.699 46.293 565.699 46.366 C 565.699 46.519 565.466 46.596 564.999 46.596 C 564.459 46.596 563.983 46.493 563.569 46.286 C 563.163 46.079 562.889 45.893 562.749 45.726 C 562.609 45.559 562.529 45.439 562.509 45.366 Z M 556.149 40.576 C 555.763 41.469 555.336 42.279 554.869 43.006 C 554.403 43.739 553.973 44.309 553.579 44.716 C 553.186 45.129 552.823 45.476 552.489 45.756 C 552.149 46.036 551.876 46.223 551.669 46.316 L 551.389 46.456 C 551.283 46.509 551.173 46.536 551.059 46.536 C 550.853 46.536 550.749 46.416 550.749 46.176 L 550.829 45.836 C 551.016 45.316 551.656 43.996 552.749 41.876 C 553.843 39.756 554.876 37.839 555.849 36.126 C 556.743 34.519 557.606 33.019 558.439 31.626 C 559.266 30.239 559.866 29.256 560.239 28.676 L 560.829 27.776 C 561.296 27.143 561.773 26.659 562.259 26.326 C 562.746 25.986 563.136 25.816 563.429 25.816 C 563.636 25.816 563.739 25.893 563.739 26.046 C 563.739 26.153 563.666 26.346 563.519 26.626 C 563.386 26.853 562.866 27.783 561.959 29.416 C 561.059 31.049 559.986 33.036 558.739 35.376 C 557.499 37.723 556.636 39.456 556.149 40.576 ZM 576.981 33.436 C 575.827 33.489 574.541 33.516 573.121 33.516 L 572.781 33.516 C 570.154 38.296 568.587 41.536 568.081 43.236 C 568.007 43.456 567.971 43.659 567.971 43.846 C 567.971 44.406 568.464 44.686 569.451 44.686 C 569.864 44.686 570.314 44.609 570.801 44.456 C 571.281 44.296 571.871 44.016 572.571 43.616 C 573.271 43.209 574.061 42.569 574.941 41.696 C 575.821 40.816 576.717 39.753 577.631 38.506 C 577.744 38.299 577.911 38.196 578.131 38.196 C 578.284 38.196 578.361 38.269 578.361 38.416 C 578.361 38.456 578.341 38.533 578.301 38.646 C 577.407 40.939 576.267 42.993 574.881 44.806 C 574.774 45.066 574.494 45.233 574.041 45.306 C 572.514 45.379 570.901 45.416 569.201 45.416 C 567.261 45.416 565.694 45.353 564.501 45.226 C 564.274 45.206 564.161 45.073 564.161 44.826 C 564.161 44.679 564.197 44.533 564.271 44.386 C 565.337 41.993 567.344 38.359 570.291 33.486 L 569.031 33.466 C 568.791 33.466 568.671 33.389 568.671 33.236 C 568.671 33.089 568.751 32.956 568.911 32.836 C 569.064 32.709 569.227 32.646 569.401 32.646 L 570.821 32.646 L 574.211 27.216 C 574.491 26.716 574.631 26.259 574.631 25.846 C 574.631 25.566 574.571 25.323 574.451 25.116 C 574.331 24.909 574.204 24.769 574.071 24.696 L 573.881 24.586 C 573.707 24.493 573.621 24.389 573.621 24.276 C 573.621 24.203 573.654 24.139 573.721 24.086 C 573.787 24.026 573.857 23.986 573.931 23.966 L 574.041 23.946 C 575.967 23.833 577.967 23.776 580.041 23.776 C 581.754 23.776 583.134 23.823 584.181 23.916 C 584.461 23.916 584.601 24.036 584.601 24.276 C 584.601 24.336 584.574 24.439 584.521 24.586 C 583.901 26.133 583.274 27.346 582.641 28.226 C 582.547 28.319 582.444 28.366 582.331 28.366 C 582.164 28.366 582.081 28.246 582.081 28.006 C 582.174 27.646 582.221 27.263 582.221 26.856 C 582.221 25.323 581.454 24.556 579.921 24.556 L 579.811 24.556 C 578.857 24.556 578.177 24.819 577.771 25.346 C 576.817 26.519 575.547 28.543 573.961 31.416 C 573.774 31.736 573.541 32.139 573.261 32.626 L 577.461 32.626 C 577.647 32.626 577.741 32.679 577.741 32.786 C 577.741 32.899 577.661 33.033 577.501 33.186 C 577.341 33.333 577.167 33.416 576.981 33.436 ZM 589.44 33.436 C 588.287 33.489 587 33.516 585.58 33.516 L 585.24 33.516 C 582.613 38.296 581.047 41.536 580.54 43.236 C 580.467 43.456 580.43 43.659 580.43 43.846 C 580.43 44.406 580.923 44.686 581.91 44.686 C 582.323 44.686 582.773 44.609 583.26 44.456 C 583.74 44.296 584.33 44.016 585.03 43.616 C 585.73 43.209 586.52 42.569 587.4 41.696 C 588.28 40.816 589.177 39.753 590.09 38.506 C 590.203 38.299 590.37 38.196 590.59 38.196 C 590.743 38.196 590.82 38.269 590.82 38.416 C 590.82 38.456 590.8 38.533 590.76 38.646 C 589.867 40.939 588.727 42.993 587.34 44.806 C 587.233 45.066 586.953 45.233 586.5 45.306 C 584.973 45.379 583.36 45.416 581.66 45.416 C 579.72 45.416 578.153 45.353 576.96 45.226 C 576.733 45.206 576.62 45.073 576.62 44.826 C 576.62 44.679 576.657 44.533 576.73 44.386 C 577.797 41.993 579.803 38.359 582.75 33.486 L 581.49 33.466 C 581.25 33.466 581.13 33.389 581.13 33.236 C 581.13 33.089 581.21 32.956 581.37 32.836 C 581.523 32.709 581.687 32.646 581.86 32.646 L 583.28 32.646 L 586.67 27.216 C 586.95 26.716 587.09 26.259 587.09 25.846 C 587.09 25.566 587.03 25.323 586.91 25.116 C 586.79 24.909 586.663 24.769 586.53 24.696 L 586.34 24.586 C 586.167 24.493 586.08 24.389 586.08 24.276 C 586.08 24.203 586.113 24.139 586.18 24.086 C 586.247 24.026 586.317 23.986 586.39 23.966 L 586.5 23.946 C 588.427 23.833 590.427 23.776 592.5 23.776 C 594.213 23.776 595.593 23.823 596.64 23.916 C 596.92 23.916 597.06 24.036 597.06 24.276 C 597.06 24.336 597.033 24.439 596.98 24.586 C 596.36 26.133 595.733 27.346 595.1 28.226 C 595.007 28.319 594.903 28.366 594.79 28.366 C 594.623 28.366 594.54 28.246 594.54 28.006 C 594.633 27.646 594.68 27.263 594.68 26.856 C 594.68 25.323 593.913 24.556 592.38 24.556 L 592.27 24.556 C 591.317 24.556 590.637 24.819 590.23 25.346 C 589.277 26.519 588.007 28.543 586.42 31.416 C 586.233 31.736 586 32.139 585.72 32.626 L 589.92 32.626 C 590.107 32.626 590.2 32.679 590.2 32.786 C 590.2 32.899 590.12 33.033 589.96 33.186 C 589.8 33.333 589.627 33.416 589.44 33.436 ZM 609.099 28.026 C 607.233 30.493 605.486 33.183 603.859 36.096 C 602.239 39.009 601.083 41.306 600.389 42.986 L 599.359 45.506 C 599.059 46.139 598.796 46.456 598.569 46.456 C 598.456 46.456 598.359 46.389 598.279 46.256 C 598.193 46.129 598.133 45.999 598.099 45.866 L 598.039 45.666 C 597.799 44.159 597.679 42.573 597.679 40.906 C 597.679 39.586 597.773 37.659 597.959 35.126 C 598.146 32.599 598.239 30.756 598.239 29.596 C 598.239 29.409 598.199 29.316 598.119 29.316 C 598.086 29.316 598.036 29.346 597.969 29.406 C 597.903 29.459 597.853 29.513 597.819 29.566 L 597.759 29.656 C 597.033 30.703 596.196 32.189 595.249 34.116 C 594.309 36.049 593.569 37.716 593.029 39.116 C 592.616 40.183 592.189 41.146 591.749 42.006 C 591.316 42.859 590.929 43.529 590.589 44.016 C 590.256 44.503 589.949 44.909 589.669 45.236 C 589.389 45.563 589.173 45.783 589.019 45.896 L 588.799 46.066 C 588.573 46.233 588.413 46.316 588.319 46.316 C 588.213 46.316 588.159 46.223 588.159 46.036 C 588.159 44.283 590.856 38.979 596.249 30.126 C 596.696 29.399 597.103 28.729 597.469 28.116 C 597.829 27.496 598.076 27.066 598.209 26.826 L 598.399 26.436 C 599.186 24.249 599.786 23.156 600.199 23.156 C 600.479 23.156 600.619 23.623 600.619 24.556 C 600.746 29.056 600.809 32.836 600.809 35.896 C 600.809 37.223 600.799 38.129 600.779 38.616 C 600.819 38.916 600.906 39.066 601.039 39.066 C 601.186 39.066 601.373 38.849 601.599 38.416 C 603.593 34.609 604.853 32.146 605.379 31.026 C 607.899 25.666 610.233 22.986 612.379 22.986 C 612.639 22.986 612.769 23.063 612.769 23.216 C 612.769 23.329 612.676 23.479 612.489 23.666 C 612.003 24.226 610.873 25.679 609.099 28.026 ZM 626.989 24.246 C 626.022 25.646 624.939 27.419 623.739 29.566 C 622.545 31.713 621.595 33.516 620.889 34.976 L 619.819 37.156 C 617.899 41.149 616.939 44.016 616.939 45.756 C 616.939 45.789 616.942 45.863 616.949 45.976 C 616.962 46.089 616.969 46.183 616.969 46.256 C 616.969 46.556 616.885 46.706 616.719 46.706 C 616.399 46.706 616.052 46.429 615.679 45.876 C 615.305 45.329 615.119 44.599 615.119 43.686 C 615.119 42.846 615.319 41.819 615.719 40.606 C 616.119 39.393 616.712 38.006 617.499 36.446 C 618.285 34.886 618.942 33.629 619.469 32.676 C 620.002 31.723 620.709 30.483 621.589 28.956 C 621.642 28.843 621.669 28.759 621.669 28.706 C 621.635 28.613 621.589 28.566 621.529 28.566 C 621.415 28.566 621.305 28.613 621.199 28.706 C 620.092 29.599 618.645 31.119 616.859 33.266 C 615.065 35.413 613.552 37.336 612.319 39.036 L 610.439 41.586 C 610.145 42.033 609.905 42.256 609.719 42.256 C 609.659 42.256 609.612 42.236 609.579 42.196 C 609.539 42.163 609.509 42.113 609.489 42.046 C 609.469 41.979 609.455 41.919 609.449 41.866 C 609.442 41.806 609.439 41.759 609.439 41.726 L 609.439 41.666 C 609.565 40.506 609.755 38.893 610.009 36.826 C 610.262 34.753 610.472 33.006 610.639 31.586 C 610.805 30.166 610.889 29.439 610.889 29.406 C 610.889 29.219 610.852 29.126 610.779 29.126 C 610.739 29.126 610.689 29.153 610.629 29.206 C 610.562 29.259 610.509 29.316 610.469 29.376 L 610.419 29.456 C 609.612 30.649 608.752 32.196 607.839 34.096 C 606.925 35.989 606.189 37.663 605.629 39.116 C 605.215 40.163 604.795 41.119 604.369 41.986 C 603.935 42.853 603.555 43.526 603.229 44.006 C 602.902 44.479 602.605 44.879 602.339 45.206 C 602.065 45.533 601.855 45.753 601.709 45.866 L 601.479 46.036 C 601.279 46.203 601.122 46.286 601.009 46.286 C 600.895 46.286 600.839 46.193 600.839 46.006 L 600.869 45.756 C 601.055 44.763 601.872 42.876 603.319 40.096 C 604.765 37.316 606.169 34.779 607.529 32.486 L 609.579 29.066 L 611.119 26.406 C 611.879 24.219 612.465 23.126 612.879 23.126 C 613.159 23.126 613.299 23.603 613.299 24.556 C 612.719 31.503 612.429 35.469 612.429 36.456 C 612.429 36.736 612.485 36.876 612.599 36.876 C 612.712 36.876 612.842 36.773 612.989 36.566 C 613.235 36.253 613.572 35.826 613.999 35.286 C 614.425 34.739 615.245 33.766 616.459 32.366 C 617.672 30.966 618.815 29.706 619.889 28.586 C 620.962 27.466 622.135 26.393 623.409 25.366 C 624.675 24.339 625.719 23.716 626.539 23.496 C 626.725 23.456 626.849 23.436 626.909 23.436 C 627.129 23.436 627.239 23.519 627.239 23.686 C 627.239 23.839 627.155 24.026 626.989 24.246 ZM 623.94 31.556 C 622.613 31.556 621.95 32.789 621.95 35.256 L 621.95 35.446 C 621.95 35.693 621.893 35.816 621.78 35.816 C 621.5 35.816 621.29 35.479 621.15 34.806 C 621.01 34.133 620.94 33.563 620.94 33.096 C 620.94 32.329 621.113 31.649 621.46 31.056 C 621.806 30.456 622.343 30.156 623.07 30.156 C 624.51 30.156 625.89 30.996 627.21 32.676 C 628.33 31.369 629.53 30.049 630.81 28.716 C 632.09 27.383 633.083 26.379 633.79 25.706 L 634.86 24.666 C 636.013 22.933 636.963 22.066 637.71 22.066 C 637.896 22.066 637.99 22.149 637.99 22.316 C 637.99 22.429 637.953 22.559 637.88 22.706 C 636.24 25.939 634.736 29.579 633.37 33.626 C 631.656 38.779 630.8 42.729 630.8 45.476 C 630.8 46.336 630.903 46.959 631.11 47.346 C 631.183 47.439 631.22 47.533 631.22 47.626 C 631.22 47.759 631.106 47.826 630.88 47.826 C 630.38 47.826 629.96 47.699 629.62 47.446 C 629.286 47.193 629.05 46.863 628.91 46.456 C 628.77 46.043 628.67 45.673 628.61 45.346 C 628.556 45.019 628.53 44.689 628.53 44.356 C 628.53 43.796 628.633 42.966 628.84 41.866 C 629.046 40.759 629.15 39.956 629.15 39.456 C 629.15 38.709 628.986 37.826 628.66 36.806 C 628.333 35.793 627.896 34.866 627.35 34.026 C 626.756 34.846 626.213 35.666 625.72 36.486 C 625.22 37.306 624.87 37.913 624.67 38.306 L 624.39 38.926 C 623.716 40.306 623.053 41.566 622.4 42.706 C 621.746 43.839 621.26 44.633 620.94 45.086 L 620.47 45.726 C 620.263 45.966 620.076 46.086 619.91 46.086 C 619.703 46.086 619.6 45.873 619.6 45.446 C 619.653 42.813 622.043 38.733 626.77 33.206 C 625.85 32.106 624.906 31.556 623.94 31.556 Z M 633.85 27.046 L 633.54 27.166 C 631.486 28.953 629.563 31.053 627.77 33.466 C 628.556 34.659 629.163 36.019 629.59 37.546 C 629.65 37.719 629.696 37.806 629.73 37.806 L 629.87 37.546 C 630.336 35.959 630.903 34.313 631.57 32.606 C 632.23 30.899 632.776 29.589 633.21 28.676 L 633.85 27.326 C 633.903 27.219 633.93 27.146 633.93 27.106 C 633.93 27.066 633.903 27.046 633.85 27.046 ZM 650.985 28.026 C 649.118 30.493 647.372 33.183 645.745 36.096 C 644.125 39.009 642.968 41.306 642.275 42.986 L 641.245 45.506 C 640.945 46.139 640.682 46.456 640.455 46.456 C 640.342 46.456 640.245 46.389 640.165 46.256 C 640.078 46.129 640.018 45.999 639.985 45.866 L 639.925 45.666 C 639.685 44.159 639.565 42.573 639.565 40.906 C 639.565 39.586 639.658 37.659 639.845 35.126 C 640.032 32.599 640.125 30.756 640.125 29.596 C 640.125 29.409 640.085 29.316 640.005 29.316 C 639.972 29.316 639.922 29.346 639.855 29.406 C 639.788 29.459 639.738 29.513 639.705 29.566 L 639.645 29.656 C 638.918 30.703 638.082 32.189 637.135 34.116 C 636.195 36.049 635.455 37.716 634.915 39.116 C 634.502 40.183 634.075 41.146 633.635 42.006 C 633.202 42.859 632.815 43.529 632.475 44.016 C 632.142 44.503 631.835 44.909 631.555 45.236 C 631.275 45.563 631.058 45.783 630.905 45.896 L 630.685 46.066 C 630.458 46.233 630.298 46.316 630.205 46.316 C 630.098 46.316 630.045 46.223 630.045 46.036 C 630.045 44.283 632.742 38.979 638.135 30.126 C 638.582 29.399 638.988 28.729 639.355 28.116 C 639.715 27.496 639.962 27.066 640.095 26.826 L 640.285 26.436 C 641.072 24.249 641.672 23.156 642.085 23.156 C 642.365 23.156 642.505 23.623 642.505 24.556 C 642.632 29.056 642.695 32.836 642.695 35.896 C 642.695 37.223 642.685 38.129 642.665 38.616 C 642.705 38.916 642.792 39.066 642.925 39.066 C 643.072 39.066 643.258 38.849 643.485 38.416 C 645.478 34.609 646.738 32.146 647.265 31.026 C 649.785 25.666 652.118 22.986 654.265 22.986 C 654.525 22.986 654.655 23.063 654.655 23.216 C 654.655 23.329 654.562 23.479 654.375 23.666 C 653.888 24.226 652.758 25.679 650.985 28.026 Z" transform="matrix(2.8883750438690186, 0, 0, 2.051564931869507, -1019.8301391601562, -16.233539581298828)" style="fill: rgb(255, 255, 255); white-space: pre;"/>
</svg>